# xmcd
#
# Track frame offsets: 
#        150
#        11752
#        30224
#        40887
#        54381
#        68486
#        82053
#        94755
#        109619
#        124763
#        141522
#        160088
#        175062
#        190838
#        208914
#        220149
#        231645
#        242121
#
# Disc length: 3385 seconds
#
# Revision: 2
# Processed by: cddbd v1.5.2PL0 Copyright (c) Steve Scherf et al.
# Submitted via: ExactAudioCopy v0.99pb4
#
DISCID=fa0d3712
DTITLE=Crystal Gayle - Crystal Gayle Audiophile Selection
DYEAR=2003
DGENRE=Country
TTITLE0=Don't It Make My Brown Eyes Blue
TTITLE1=Half The Way
TTITLE2=Crying In The Rain
TTITLE3=Talkin' In Your Sleep
TTITLE4=Everything I Own
TTITLE5=I Fall To Pieces
TTITLE6=Crazy
TTITLE7=If You Ever Change Your Mind
TTITLE8=For The Good Times
TTITLE9=When I Dream
TTITLE10=Old Rugged Cross
TTITLE11=The Blue Side
TTITLE12=Tennessee Nights
TTITLE13=Til' I Gain Control Again
TTITLE14=He's Got The Whole World In His Hands
TTITLE15=The Woman In Me
TTITLE16=Beyond You
TTITLE17=Always
EXTD=YEAR: 2003
EXTT0=
EXTT1=
EXTT2=
EXTT3=
EXTT4=
EXTT5=
EXTT6=
EXTT7=
EXTT8=
EXTT9=
EXTT10=
EXTT11=
EXTT12=
EXTT13=
EXTT14=
EXTT15=
EXTT16=
EXTT17=
PLAYORDER=
